<mxfile host="app.diagrams.net" agent="Mozilla/5.0 (Windows NT 10.0; Win64; x64) AppleWebKit/537.36 (KHTML, like Gecko) Chrome/128.0.0.0 Safari/537.36" version="24.7.13">
  <diagram id="R2lEEEUBdFMjLlhIrx00" name="Page-1">
    <mxGraphModel dx="1526" dy="1047" grid="1" gridSize="10" guides="1" tooltips="1" connect="1" arrows="1" fold="1" page="1" pageScale="1" pageWidth="850" pageHeight="1100" math="0" shadow="0" extFonts="Permanent Marker^https://fonts.googleapis.com/css?family=Permanent+Marker">
      <root>
        <mxCell id="0" />
        <mxCell id="1" parent="0" />
        <mxCell id="PlCgHlOcaQ3vLh_5juwd-19" value="Class&amp;nbsp;&lt;div&gt;Animals&lt;/div&gt;" style="swimlane;childLayout=stackLayout;horizontal=1;startSize=50;horizontalStack=0;rounded=1;fontSize=14;fontStyle=0;strokeWidth=2;resizeParent=0;resizeLast=1;shadow=0;dashed=0;align=center;arcSize=4;whiteSpace=wrap;html=1;" vertex="1" parent="1">
          <mxGeometry x="345" y="50" width="160" height="120" as="geometry" />
        </mxCell>
        <mxCell id="PlCgHlOcaQ3vLh_5juwd-35" style="edgeStyle=orthogonalEdgeStyle;rounded=0;orthogonalLoop=1;jettySize=auto;html=1;exitX=0.5;exitY=0;exitDx=0;exitDy=0;entryX=0.25;entryY=1;entryDx=0;entryDy=0;" edge="1" parent="1" source="PlCgHlOcaQ3vLh_5juwd-21" target="PlCgHlOcaQ3vLh_5juwd-19">
          <mxGeometry relative="1" as="geometry" />
        </mxCell>
        <mxCell id="PlCgHlOcaQ3vLh_5juwd-37" value="Extends" style="edgeLabel;html=1;align=center;verticalAlign=middle;resizable=0;points=[];" vertex="1" connectable="0" parent="PlCgHlOcaQ3vLh_5juwd-35">
          <mxGeometry x="-0.098" y="-2" relative="1" as="geometry">
            <mxPoint as="offset" />
          </mxGeometry>
        </mxCell>
        <mxCell id="PlCgHlOcaQ3vLh_5juwd-21" value="Class&amp;nbsp;&lt;div&gt;PetAnimals&lt;/div&gt;" style="swimlane;childLayout=stackLayout;horizontal=1;startSize=50;horizontalStack=0;rounded=1;fontSize=14;fontStyle=0;strokeWidth=2;resizeParent=0;resizeLast=1;shadow=0;dashed=0;align=center;arcSize=4;whiteSpace=wrap;html=1;" vertex="1" parent="1">
          <mxGeometry x="120" y="240" width="160" height="120" as="geometry" />
        </mxCell>
        <mxCell id="PlCgHlOcaQ3vLh_5juwd-36" style="edgeStyle=orthogonalEdgeStyle;rounded=0;orthogonalLoop=1;jettySize=auto;html=1;exitX=0.5;exitY=0;exitDx=0;exitDy=0;entryX=0.75;entryY=1;entryDx=0;entryDy=0;" edge="1" parent="1" source="PlCgHlOcaQ3vLh_5juwd-22" target="PlCgHlOcaQ3vLh_5juwd-19">
          <mxGeometry relative="1" as="geometry" />
        </mxCell>
        <mxCell id="PlCgHlOcaQ3vLh_5juwd-38" value="Extends" style="edgeLabel;html=1;align=center;verticalAlign=middle;resizable=0;points=[];" vertex="1" connectable="0" parent="PlCgHlOcaQ3vLh_5juwd-36">
          <mxGeometry x="0.0036" y="1" relative="1" as="geometry">
            <mxPoint as="offset" />
          </mxGeometry>
        </mxCell>
        <mxCell id="PlCgHlOcaQ3vLh_5juwd-22" value="Class&amp;nbsp;&lt;div&gt;PackAnimals&lt;/div&gt;" style="swimlane;childLayout=stackLayout;horizontal=1;startSize=50;horizontalStack=0;rounded=1;fontSize=14;fontStyle=0;strokeWidth=2;resizeParent=0;resizeLast=1;shadow=0;dashed=0;align=center;arcSize=4;whiteSpace=wrap;html=1;" vertex="1" parent="1">
          <mxGeometry x="590" y="240" width="160" height="120" as="geometry" />
        </mxCell>
        <mxCell id="PlCgHlOcaQ3vLh_5juwd-29" style="edgeStyle=orthogonalEdgeStyle;rounded=0;orthogonalLoop=1;jettySize=auto;html=1;exitX=0.5;exitY=0;exitDx=0;exitDy=0;entryX=0.25;entryY=1;entryDx=0;entryDy=0;" edge="1" parent="1" source="PlCgHlOcaQ3vLh_5juwd-23" target="PlCgHlOcaQ3vLh_5juwd-21">
          <mxGeometry relative="1" as="geometry" />
        </mxCell>
        <mxCell id="PlCgHlOcaQ3vLh_5juwd-39" value="Extends" style="edgeLabel;html=1;align=center;verticalAlign=middle;resizable=0;points=[];" vertex="1" connectable="0" parent="PlCgHlOcaQ3vLh_5juwd-29">
          <mxGeometry x="-0.1571" y="-2" relative="1" as="geometry">
            <mxPoint as="offset" />
          </mxGeometry>
        </mxCell>
        <mxCell id="PlCgHlOcaQ3vLh_5juwd-23" value="Class&amp;nbsp;&lt;div&gt;Dog&lt;/div&gt;" style="swimlane;childLayout=stackLayout;horizontal=1;startSize=50;horizontalStack=0;rounded=1;fontSize=14;fontStyle=0;strokeWidth=2;resizeParent=0;resizeLast=1;shadow=0;dashed=0;align=center;arcSize=4;whiteSpace=wrap;html=1;" vertex="1" parent="1">
          <mxGeometry x="45" y="430" width="90" height="90" as="geometry" />
        </mxCell>
        <mxCell id="PlCgHlOcaQ3vLh_5juwd-30" style="edgeStyle=orthogonalEdgeStyle;rounded=0;orthogonalLoop=1;jettySize=auto;html=1;exitX=0.5;exitY=0;exitDx=0;exitDy=0;entryX=0.5;entryY=1;entryDx=0;entryDy=0;" edge="1" parent="1" source="PlCgHlOcaQ3vLh_5juwd-24" target="PlCgHlOcaQ3vLh_5juwd-21">
          <mxGeometry relative="1" as="geometry" />
        </mxCell>
        <mxCell id="PlCgHlOcaQ3vLh_5juwd-40" value="Extends" style="edgeLabel;html=1;align=center;verticalAlign=middle;resizable=0;points=[];" vertex="1" connectable="0" parent="PlCgHlOcaQ3vLh_5juwd-30">
          <mxGeometry x="0.0857" relative="1" as="geometry">
            <mxPoint as="offset" />
          </mxGeometry>
        </mxCell>
        <mxCell id="PlCgHlOcaQ3vLh_5juwd-24" value="Class&amp;nbsp;&lt;div&gt;Cat&lt;/div&gt;" style="swimlane;childLayout=stackLayout;horizontal=1;startSize=50;horizontalStack=0;rounded=1;fontSize=14;fontStyle=0;strokeWidth=2;resizeParent=0;resizeLast=1;shadow=0;dashed=0;align=center;arcSize=4;whiteSpace=wrap;html=1;" vertex="1" parent="1">
          <mxGeometry x="155" y="430" width="90" height="90" as="geometry" />
        </mxCell>
        <mxCell id="PlCgHlOcaQ3vLh_5juwd-31" style="edgeStyle=orthogonalEdgeStyle;rounded=0;orthogonalLoop=1;jettySize=auto;html=1;exitX=0.5;exitY=0;exitDx=0;exitDy=0;entryX=0.75;entryY=1;entryDx=0;entryDy=0;" edge="1" parent="1" source="PlCgHlOcaQ3vLh_5juwd-25" target="PlCgHlOcaQ3vLh_5juwd-21">
          <mxGeometry relative="1" as="geometry" />
        </mxCell>
        <mxCell id="PlCgHlOcaQ3vLh_5juwd-41" value="Extends" style="edgeLabel;html=1;align=center;verticalAlign=middle;resizable=0;points=[];" vertex="1" connectable="0" parent="PlCgHlOcaQ3vLh_5juwd-31">
          <mxGeometry x="-0.0143" relative="1" as="geometry">
            <mxPoint as="offset" />
          </mxGeometry>
        </mxCell>
        <mxCell id="PlCgHlOcaQ3vLh_5juwd-25" value="Class&amp;nbsp;&lt;div&gt;Hamster&lt;/div&gt;" style="swimlane;childLayout=stackLayout;horizontal=1;startSize=50;horizontalStack=0;rounded=1;fontSize=14;fontStyle=0;strokeWidth=2;resizeParent=0;resizeLast=1;shadow=0;dashed=0;align=center;arcSize=4;whiteSpace=wrap;html=1;" vertex="1" parent="1">
          <mxGeometry x="265" y="430" width="90" height="90" as="geometry" />
        </mxCell>
        <mxCell id="PlCgHlOcaQ3vLh_5juwd-32" style="edgeStyle=orthogonalEdgeStyle;rounded=0;orthogonalLoop=1;jettySize=auto;html=1;exitX=0.5;exitY=0;exitDx=0;exitDy=0;entryX=0.25;entryY=1;entryDx=0;entryDy=0;" edge="1" parent="1" source="PlCgHlOcaQ3vLh_5juwd-26" target="PlCgHlOcaQ3vLh_5juwd-22">
          <mxGeometry relative="1" as="geometry">
            <mxPoint x="640" y="380" as="targetPoint" />
          </mxGeometry>
        </mxCell>
        <mxCell id="PlCgHlOcaQ3vLh_5juwd-42" value="Extends" style="edgeLabel;html=1;align=center;verticalAlign=middle;resizable=0;points=[];" vertex="1" connectable="0" parent="PlCgHlOcaQ3vLh_5juwd-32">
          <mxGeometry x="0.0143" y="-2" relative="1" as="geometry">
            <mxPoint as="offset" />
          </mxGeometry>
        </mxCell>
        <mxCell id="PlCgHlOcaQ3vLh_5juwd-26" value="Class&amp;nbsp;&lt;div&gt;Camel&lt;/div&gt;" style="swimlane;childLayout=stackLayout;horizontal=1;startSize=50;horizontalStack=0;rounded=1;fontSize=14;fontStyle=0;strokeWidth=2;resizeParent=0;resizeLast=1;shadow=0;dashed=0;align=center;arcSize=4;whiteSpace=wrap;html=1;" vertex="1" parent="1">
          <mxGeometry x="515" y="430" width="90" height="90" as="geometry" />
        </mxCell>
        <mxCell id="PlCgHlOcaQ3vLh_5juwd-33" style="edgeStyle=orthogonalEdgeStyle;rounded=0;orthogonalLoop=1;jettySize=auto;html=1;exitX=0.5;exitY=0;exitDx=0;exitDy=0;entryX=0.5;entryY=1;entryDx=0;entryDy=0;" edge="1" parent="1" source="PlCgHlOcaQ3vLh_5juwd-27" target="PlCgHlOcaQ3vLh_5juwd-22">
          <mxGeometry relative="1" as="geometry" />
        </mxCell>
        <mxCell id="PlCgHlOcaQ3vLh_5juwd-43" value="Extends" style="edgeLabel;html=1;align=center;verticalAlign=middle;resizable=0;points=[];" vertex="1" connectable="0" parent="PlCgHlOcaQ3vLh_5juwd-33">
          <mxGeometry x="-0.0857" relative="1" as="geometry">
            <mxPoint as="offset" />
          </mxGeometry>
        </mxCell>
        <mxCell id="PlCgHlOcaQ3vLh_5juwd-27" value="Class&amp;nbsp;&lt;div&gt;Horse&lt;/div&gt;" style="swimlane;childLayout=stackLayout;horizontal=1;startSize=50;horizontalStack=0;rounded=1;fontSize=14;fontStyle=0;strokeWidth=2;resizeParent=0;resizeLast=1;shadow=0;dashed=0;align=center;arcSize=4;whiteSpace=wrap;html=1;" vertex="1" parent="1">
          <mxGeometry x="625" y="430" width="90" height="90" as="geometry" />
        </mxCell>
        <mxCell id="PlCgHlOcaQ3vLh_5juwd-34" style="edgeStyle=orthogonalEdgeStyle;rounded=0;orthogonalLoop=1;jettySize=auto;html=1;exitX=0.5;exitY=0;exitDx=0;exitDy=0;entryX=0.75;entryY=1;entryDx=0;entryDy=0;" edge="1" parent="1" source="PlCgHlOcaQ3vLh_5juwd-28" target="PlCgHlOcaQ3vLh_5juwd-22">
          <mxGeometry relative="1" as="geometry" />
        </mxCell>
        <mxCell id="PlCgHlOcaQ3vLh_5juwd-44" value="Extends" style="edgeLabel;html=1;align=center;verticalAlign=middle;resizable=0;points=[];" vertex="1" connectable="0" parent="PlCgHlOcaQ3vLh_5juwd-34">
          <mxGeometry y="-1" relative="1" as="geometry">
            <mxPoint as="offset" />
          </mxGeometry>
        </mxCell>
        <mxCell id="PlCgHlOcaQ3vLh_5juwd-28" value="Class&amp;nbsp;&lt;div&gt;Donkey&lt;/div&gt;" style="swimlane;childLayout=stackLayout;horizontal=1;startSize=50;horizontalStack=0;rounded=1;fontSize=14;fontStyle=0;strokeWidth=2;resizeParent=0;resizeLast=1;shadow=0;dashed=0;align=center;arcSize=4;whiteSpace=wrap;html=1;" vertex="1" parent="1">
          <mxGeometry x="735" y="430" width="90" height="90" as="geometry" />
        </mxCell>
      </root>
    </mxGraphModel>
  </diagram>
</mxfile>
